<svg xmlns="http://www.w3.org/2000/svg" version="1.1" xmlns:xlink="http://www.w3.org/1999/xlink" xmlns:svgjs="http://svgjs.dev/svgjs" width="720" height="1440" preserveAspectRatio="none" viewBox="0 0 720 1440"><g mask="url(&quot;#SvgjsMask1044&quot;)" fill="none"><rect width="720" height="1440" x="0" y="0" fill="rgba(234, 234, 234, 1)"></rect><path d="M0,581.768C107.141,582.987,185.169,478.703,255.946,398.259C313.471,332.877,317.997,239.976,365.14,166.754C423.749,75.723,548.655,25.902,564.626,-81.181C581.107,-191.679,522.18,-304.658,447.896,-388.104C374.062,-471.044,269.009,-537.167,157.969,-537.993C52.644,-538.776,-23.782,-444.628,-115.187,-392.292C-183.43,-353.218,-253.65,-323.288,-310.994,-269.477C-373.821,-210.521,-438.134,-149.154,-462.389,-66.482C-488.484,22.459,-488.995,121.418,-450.405,205.693C-411.831,289.933,-323.349,333.093,-252.229,392.476C-169.871,461.243,-107.286,580.547,0,581.768" fill="#c7c7c7"></path><path d="M720 1866.565C804.037 1851.29 887.238 1854.156 967.645 1825.343 1067.621 1789.517 1197.325 1774.714 1243.375 1679.017 1289.312 1583.555 1195.719 1478.528 1185.2649999999999 1373.105 1174.124 1260.751 1258.067 1122.9859999999999 1180.136 1041.29 1101.097 958.433 955.012 1045.989 844.525 1015.906 737.511 986.769 662.578 854.865 552.7719999999999 870.475 444.082 885.926 387.113 1006.325 317.099 1090.885 248.65300000000002 1173.5520000000001 150.46000000000004 1250.6109999999999 149.17399999999998 1357.9279999999999 147.89499999999998 1464.669 266.662 1529.679 310.676 1626.932 354.915 1724.682 314.252 1873.069 406.846 1927.277 500.503 1982.107 613.224 1885.973 720 1866.565" fill="#ffffff"></path></g><defs><mask id="SvgjsMask1044"><rect width="720" height="1440" fill="#ffffff"></rect></mask></defs></svg>